<svg xmlns="http://www.w3.org/2000/svg" viewBox="0 0 1200 675" role="img" aria-labelledby="title desc">
  <title id="title">Clay &amp; Calm Hands event banner</title>
  <desc id="desc">Scandinavian abstract banner for ART</desc>
  <rect width="1200" height="675" fill="#f5f1ea"/>
  <rect x="42" y="42" width="1116" height="591" fill="#eadfd5" opacity="0.42"/>
  <path d="M0 512c158-72 286-82 444-32 170 54 346 38 512-54 100-56 176-72 244-62v311H0Z" fill="#ae5745" opacity="0.10"/>
  <g opacity="0.22" fill="none" stroke="#6d5955" stroke-width="2"><path d="M224 94h250M756 568h210"/><circle cx="866" cy="154" r="68"/><circle cx="304" cy="570" r="42"/></g><g opacity="0.5"><rect x="852" y="238" width="190" height="190" rx="38" fill="#eadfd5" transform="rotate(-10 947 333)"/><circle cx="944" cy="333" r="78" fill="#f5f1ea" opacity="0.72"/></g>
  <g><path d="M248 448c76-142 232-196 386-118 86 44 164 36 226-22" fill="none" stroke="#ae5745" stroke-width="18" stroke-linecap="round"/><circle cx="316" cy="292" r="54" fill="#e4bb85" opacity="0.86"/><circle cx="712" cy="424" r="72" fill="#798165" opacity="0.9"/><rect x="500" y="244" width="136" height="136" rx="28" fill="#6d5955" opacity="0.9" transform="rotate(8 568 312)"/></g>
  <g opacity="0.9"><path d="M82 92h94" stroke="#e4bb85" stroke-width="8" stroke-linecap="round"/><path d="M82 116h54" stroke="#6d5955" stroke-width="4" stroke-linecap="round" opacity="0.72"/></g>
  <circle cx="1088" cy="560" r="18" fill="#e4bb85" opacity="0.85"/>
  <circle cx="1038" cy="560" r="10" fill="#6d5955" opacity="0.75"/>
</svg>