<svg xmlns="http://www.w3.org/2000/svg" viewBox="0 0 1200 675" role="img" aria-labelledby="title desc">
  <title id="title">Danish Work Culture Breakfast event banner</title>
  <desc id="desc">Scandinavian abstract banner for BUSINESS BREAKFAST</desc>
  <rect width="1200" height="675" fill="#f5f1ea"/>
  <rect x="42" y="42" width="1116" height="591" fill="#e7dccb" opacity="0.42"/>
  <path d="M0 512c158-72 286-82 444-32 170 54 346 38 512-54 100-56 176-72 244-62v311H0Z" fill="#798165" opacity="0.10"/>
  <g opacity="0.22" fill="none" stroke="#555c43" stroke-width="2"><path d="M80 94h250M900 568h210"/><circle cx="1010" cy="154" r="68"/><circle cx="160" cy="570" r="42"/></g><g opacity="0.5"><rect x="852" y="238" width="190" height="190" rx="38" fill="#e7dccb" transform="rotate(-10 947 333)"/><circle cx="944" cy="333" r="78" fill="#f5f1ea" opacity="0.72"/></g>
  <g opacity="0.95" fill="none" stroke="#555c43" stroke-width="10" stroke-linecap="round"><path d="M214 382h180M214 312h128M214 452h230"/><circle cx="762" cy="348" r="82" fill="#798165" stroke="none"/><path d="M710 352h104M762 300v104" stroke="#f5f1ea" stroke-width="12"/></g>
  <g opacity="0.9"><path d="M82 92h94" stroke="#ae5745" stroke-width="8" stroke-linecap="round"/><path d="M82 116h54" stroke="#555c43" stroke-width="4" stroke-linecap="round" opacity="0.72"/></g>
  <circle cx="1088" cy="560" r="18" fill="#ae5745" opacity="0.85"/>
  <circle cx="1038" cy="560" r="10" fill="#555c43" opacity="0.75"/>
</svg>